<?xml version="1.0" encoding="UTF-8"?>
<svg version="1.1" xmlns="http://www.w3.org/2000/svg" width="225" height="225">
<path d="M0 0 C74.25 0 148.5 0 225 0 C225 74.25 225 148.5 225 225 C150.75 225 76.5 225 0 225 C0 150.75 0 76.5 0 0 Z " fill="#010101" transform="translate(0,0)"/>
<path d="M0 0 C7.29288016 4.7403721 11.87012762 11.67531906 15.0703125 19.67578125 C18.72023419 28.41383881 24.5490465 33.98047865 31.46386719 40.33007812 C37.5911452 46.07842898 42.02065429 51.88428734 43.62890625 60.28515625 C43.44478108 67.98592086 42.4731209 74.2150958 37.12890625 80.0390625 C31.93523374 84.81056504 27.52935101 87.58486867 20.23828125 87.37890625 C14.09860262 86.33955402 8.7991576 82.74005834 4 78.9375 C-2.04605089 74.22960927 -8.96597786 71.18072949 -16.734375 71.62890625 C-25.43855996 73.05459172 -32.07158941 77.88196934 -39.01953125 82.9765625 C-44.08959557 86.41862452 -47.85384236 87.52984118 -54 87 C-60.84497309 84.79983008 -66.12137206 81.06842563 -69.875 74.9375 C-72.87043421 67.11608846 -73.03762559 59.57502176 -69.734375 51.85546875 C-65.21131759 44.40872333 -58.43050941 38.35772633 -52.23828125 32.296875 C-47.83054085 27.77374873 -45.20138576 22.47289077 -42.51147461 16.79418945 C-37.914383 7.16574502 -33.05083675 1.06403399 -23 -3 C-14.98177233 -5.67274256 -7.39403789 -3.68608102 0 0 Z " fill="#050505" transform="translate(126,77)"/>
<path d="M0 0 C7.29288016 4.7403721 11.87012762 11.67531906 15.0703125 19.67578125 C18.72023419 28.41383881 24.5490465 33.98047865 31.46386719 40.33007812 C37.5911452 46.07842898 42.02065429 51.88428734 43.62890625 60.28515625 C43.44478108 67.98592086 42.4731209 74.2150958 37.12890625 80.0390625 C31.93523374 84.81056504 27.52935101 87.58486867 20.23828125 87.37890625 C14.09860262 86.33955402 8.7991576 82.74005834 4 78.9375 C-2.04605089 74.22960927 -8.96597786 71.18072949 -16.734375 71.62890625 C-25.43855996 73.05459172 -32.07158941 77.88196934 -39.01953125 82.9765625 C-44.08959557 86.41862452 -47.85384236 87.52984118 -54 87 C-60.84497309 84.79983008 -66.12137206 81.06842563 -69.875 74.9375 C-72.87043421 67.11608846 -73.03762559 59.57502176 -69.734375 51.85546875 C-65.21131759 44.40872333 -58.43050941 38.35772633 -52.23828125 32.296875 C-47.83054085 27.77374873 -45.20138576 22.47289077 -42.51147461 16.79418945 C-37.914383 7.16574502 -33.05083675 1.06403399 -23 -3 C-14.98177233 -5.67274256 -7.39403789 -3.68608102 0 0 Z M-32 12.3125 C-34.28777756 15.54087576 -35.88658042 18.91096886 -37.50439453 22.51416016 C-41.69452575 31.71227656 -47.23849046 37.744176 -54.546875 44.640625 C-60.60195604 50.38552046 -64.41464835 55.9269524 -65.375 64.25 C-64.81550326 69.84496736 -62.26686546 73.92757279 -58.1328125 77.70703125 C-54.31248141 80.02301951 -50.31534255 79.61254464 -46 79 C-42.83068782 77.44319227 -42.83068782 77.44319227 -40 75 C-30.60735573 68.05761076 -20.93159859 63.34377243 -9 65 C-0.03821829 67.20941433 6.81081575 71.90000366 14.125 77.3125 C17.58864457 79.34550877 19.98630873 79.92832694 24 80 C29.26592372 78.20958593 31.8142084 75.36908562 35 71 C36.85316927 65.44049219 36.67715204 60.05947238 34.08984375 54.765625 C30.49186696 48.93664469 25.32624581 44.34746194 20.4375 39.625 C14.71434363 34.01570848 10.94529706 28.14821453 7.5546875 20.91796875 C3.90915385 13.1783672 0.18403746 7.30001511 -8 4 C-18.31177369 2.70420833 -25.31219781 4.26930323 -32 12.3125 Z " fill="#F3F3F3" transform="translate(126,77)"/>
<path d="M0 0 C5.46037311 3.84708105 9.24710586 8.73813502 11.75 14.9375 C12.19322097 18.03070068 12.22570432 21.06645315 12.1875 24.1875 C12.18137695 25.03070801 12.17525391 25.87391602 12.16894531 26.74267578 C11.95567769 35.24549187 10.03367023 42.83336321 3.75 48.9375 C-0.18800046 51.79207928 -3.34300318 53.16475371 -8.25 52.9375 C-8.26981934 52.13006348 -8.28963867 51.32262695 -8.31005859 50.49072266 C-8.40505899 46.84764125 -8.51483912 43.20515314 -8.625 39.5625 C-8.6559375 38.29148438 -8.686875 37.02046875 -8.71875 35.7109375 C-8.75742188 34.49921875 -8.79609375 33.2875 -8.8359375 32.0390625 C-8.8673584 30.91838379 -8.8987793 29.79770508 -8.93115234 28.64306641 C-8.98411203 25.79039588 -8.98411203 25.79039588 -11.25 23.9375 C-14.54714793 24.26721479 -15.8726839 24.5601839 -18.25 26.9375 C-18.62095708 29.35996595 -18.62095708 29.35996595 -18.6640625 32.1640625 C-18.72207031 33.7109375 -18.72207031 33.7109375 -18.78125 35.2890625 C-18.8121875 36.36929688 -18.843125 37.44953125 -18.875 38.5625 C-18.93300781 40.19445313 -18.93300781 40.19445313 -18.9921875 41.859375 C-19.08666247 44.55191165 -19.17222431 47.24443757 -19.25 49.9375 C-25.91077215 43.71278495 -27.28594285 38.05696375 -27.65405273 29.02807617 C-27.81358586 19.05667362 -25.61589171 10.80124858 -19.25 2.9375 C-13.48383305 -2.27950819 -7.14101814 -2.33456362 0 0 Z " fill="#FAFAFA" transform="translate(141.25,16.0625)"/>
<path d="M0 0 C6.15100479 3.00015601 9.59468956 9.03681062 12.1484375 15.1640625 C13.21223689 19.21038622 13.387691 22.93754633 13.37890625 27.10546875 C13.37648926 28.29378296 13.37648926 28.29378296 13.37402344 29.50610352 C13.24145742 35.88421844 12.39732002 41.87748763 9.00390625 47.41796875 C7.69201905 48.44594236 6.36053634 49.44980938 5.00390625 50.41796875 C4.98932373 49.73694092 4.97474121 49.05591309 4.9597168 48.35424805 C4.88527929 45.2707466 4.78860542 42.18833308 4.69140625 39.10546875 C4.66884766 38.03361328 4.64628906 36.96175781 4.62304688 35.85742188 C4.56987305 34.31538086 4.56987305 34.31538086 4.515625 32.7421875 C4.47634888 31.32039185 4.47634888 31.32039185 4.4362793 29.86987305 C3.93703583 27.03875945 3.33707022 26.06427158 1.00390625 24.41796875 C-2.3142836 24.66002224 -2.3142836 24.66002224 -4.99609375 26.41796875 C-5.15434633 28.41579001 -5.24728546 30.41885709 -5.3125 32.421875 C-5.35439453 33.63681641 -5.39628906 34.85175781 -5.43945312 36.10351562 C-5.47876953 37.38291016 -5.51808594 38.66230469 -5.55859375 39.98046875 C-5.60177734 41.26373047 -5.64496094 42.54699219 -5.68945312 43.86914062 C-5.79594175 47.05196728 -5.89795337 50.23487549 -5.99609375 53.41796875 C-13.09214328 52.7083638 -16.48757818 50.86968841 -20.99609375 45.41796875 C-26.89358198 36.04466619 -27.43002441 25.59010457 -25.5546875 14.90234375 C-23.72366936 9.05229837 -19.25510016 3.45815976 -14.07421875 0.21484375 C-9.61349229 -1.49566038 -4.55953556 -1.32949276 0 0 Z " fill="#FBFBFB" transform="translate(95.99609375,15.58203125)"/>
<path d="M0 0 C5.70792166 2.37130569 8.43472557 6.57345794 11 12 C13.90218293 21.3837248 11.85510237 30.99628006 7.74609375 39.63671875 C4.6093074 45.35472984 0.94434771 50.03985924 -5 53 C-6.32 53 -7.64 53 -9 53 C-9.02505615 52.25314941 -9.0501123 51.50629883 -9.07592773 50.73681641 C-9.19168213 47.36602733 -9.31450128 43.99553217 -9.4375 40.625 C-9.47681641 39.449375 -9.51613281 38.27375 -9.55664062 37.0625 C-9.59853516 35.94101563 -9.64042969 34.81953125 -9.68359375 33.6640625 C-9.72025146 32.62717285 -9.75690918 31.5902832 -9.79467773 30.52197266 C-9.84164223 28.00574834 -9.84164223 28.00574834 -11 26 C-13.64 26 -16.28 26 -19 26 C-19.33 34.25 -19.66 42.5 -20 51 C-26.33260926 44.66739074 -28.06761246 40.09641539 -28.5 31.25 C-28.21586389 21.12442235 -23.98504175 11.32709277 -17 4 C-11.91864072 -0.72684584 -6.64323611 -1.10076877 0 0 Z " fill="#F9F9F9" transform="translate(175,54)"/>
<path d="M0 0 C8.30079776 3.91547064 12.98039356 11.62252778 16 20 C18.67380395 28.37555805 17.8916382 38.21672361 14 46 C12.4375 48.5 12.4375 48.5 11 50 C10.34 50 9.68 50 9 50 C8.97494385 49.34402832 8.9498877 48.68805664 8.92407227 48.01220703 C8.8082674 45.04959817 8.68547114 42.08731969 8.5625 39.125 C8.52318359 38.09246094 8.48386719 37.05992188 8.44335938 35.99609375 C8.40146484 35.00996094 8.35957031 34.02382812 8.31640625 33.0078125 C8.27974854 32.09660645 8.24309082 31.18540039 8.20532227 30.24658203 C8.13422935 27.96516519 8.13422935 27.96516519 7 26 C4.36 26 1.72 26 -1 26 C-1.33 34.91 -1.66 43.82 -2 53 C-9.09878096 51.58024381 -12.84653101 47.67728578 -17.3125 42.125 C-22.28703479 32.91289853 -23.42741179 23.37162793 -22 13 C-20.87370705 9.67406655 -19.42820238 7.5056982 -17 5 C-16.13375 4.01 -15.2675 3.02 -14.375 2 C-9.56366206 -0.85116322 -5.46145207 -0.86534218 0 0 Z " fill="#FAFBFB" transform="translate(59,54)"/>
<path d="M0 0 C4.38544865 2.19272433 7.23315916 4.38658225 9 9 C9.71052373 13.62916975 10.10216151 17.99185459 7.79296875 22.19921875 C5.22783892 25.29685655 2.78062637 27.51628248 -1 29 C-5.6610757 29.33051264 -9.74230063 28.62913291 -13.4375 25.6875 C-17.8090109 21.10274467 -18.45360158 17.6830317 -18.31640625 11.47265625 C-17.71327843 6.75932402 -15.30770645 4.12089124 -11.8125 1.125 C-7.79880044 -0.48047982 -4.26304489 -0.67667379 0 0 Z " fill="#F9FAFA" transform="translate(116,90)"/>
<path d="M0 0 C3.0220794 1.74450506 5.41651082 3.83302164 7 7 C7.75927918 12.25728746 7.81047158 16.73754667 4.5625 21.125 C1.98263016 23.71098328 0.07861757 24.49874641 -3.5625 24.6875 C-7.76153575 24.3411149 -10.10522028 23.15794151 -13 20 C-15.28357247 16.95523671 -15.41548086 13.79405709 -15.32421875 10.03125 C-14.79002404 6.68448796 -13.13123774 4.55748529 -11 2 C-7.3112362 -0.45917586 -4.2815571 -0.81591937 0 0 Z " fill="#F4F4F4" transform="translate(30,187)"/>
<path d="M0 0 C1.32 0 2.64 0 4 0 C5.32 3.63 6.64 7.26 8 11 C8.99 7.7 9.98 4.4 11 1 C12.65 0.67 14.3 0.34 16 0 C17.65 3.3 19.3 6.6 21 10 C21.99 7.03 22.98 4.06 24 1 C25.65 0.67 27.3 0.34 29 0 C28.354523 7.90709331 26.13002861 15.39133967 24 23 C22.35 23.33 20.7 23.66 19 24 C16.525 18.06 16.525 18.06 14 12 C12.68 15.96 11.36 19.92 10 24 C8.35 23.67 6.7 23.34 5 23 C-0.22659668 8.2335958 -0.22659668 8.2335958 -1 1 C-0.67 0.67 -0.34 0.34 0 0 Z " fill="#F3F4F3" transform="translate(154,187)"/>
<path d="M0 0 C4.78824184 1.79840069 7.58054333 5.85070727 10.7578125 9.65625 C14.4934013 13.9374866 17.64284111 15.67120609 23.2734375 16.22265625 C29.96230073 15.71291017 33.50749539 12.81701962 38 8 C39.38332804 6.37458956 40.74462118 4.72614587 42 3 C43.32 3.33 44.64 3.66 46 4 C46 10.28477331 43.60254916 13.49125436 39.30859375 17.9765625 C34.10889067 22.53400107 28.27244071 24.82507509 21.3203125 24.4375 C12.21488543 22.7206518 6.45743541 17.14281988 1 10 C-1.29404844 6.55892734 -1.26293056 5.03160191 -1 1 C-0.67 0.67 -0.34 0.34 0 0 Z " fill="#F3F3F3" transform="translate(88,110)"/>
<path d="M0 0 C4.18186522 0.04978411 5.87365916 0.14340564 9.5 2.375 C11.94753545 6.57077507 12.01441702 8.55917281 11.25 13.375 C9.25 15.875 9.25 15.875 6.25 17.375 C3.48847356 17.68126911 1.04465924 17.56446842 -1.75 17.375 C-1.75 19.685 -1.75 21.995 -1.75 24.375 C-3.4 24.375 -5.05 24.375 -6.75 24.375 C-6.77887236 20.56251574 -6.79675492 16.7500593 -6.8125 12.9375 C-6.82087891 11.84888672 -6.82925781 10.76027344 -6.83789062 9.63867188 C-6.84111328 8.60419922 -6.84433594 7.56972656 -6.84765625 6.50390625 C-6.85289307 5.54556885 -6.85812988 4.58723145 -6.86352539 3.59985352 C-6.64017216 -0.77738955 -3.79100764 0.12020268 0 0 Z " fill="#F4F5F5" transform="translate(123.75,186.625)"/>
<path d="M0 0 C5 1 5 1 6.984375 3.21484375 C7.56703125 4.11332031 8.1496875 5.01179687 8.75 5.9375 C9.34296875 6.83339844 9.9359375 7.72929687 10.546875 8.65234375 C12 11 12 11 13 13 C13.33 8.71 13.66 4.42 14 0 C15.65 0.33 17.3 0.66 19 1 C19 8.26 19 15.52 19 23 C17.35 23.33 15.7 23.66 14 24 C11.36 20.04 8.72 16.08 6 12 C5.67 15.63 5.34 19.26 5 23 C3.35 23.33 1.7 23.66 0 24 C0 16.08 0 8.16 0 0 Z " fill="#F5F5F5" transform="translate(83,187)"/>
<path d="M0 0 C3.73716178 0.87853713 5.13010387 2.29902003 7.16015625 5.5078125 C7.85128868 8.66645905 7.86368334 11.35052021 7.16015625 14.5078125 C4.64718657 18.16304113 2.92420646 19.2577597 -1.27734375 20.6328125 C-6.18549472 20.46059668 -7.45492239 18.97332723 -10.83984375 15.5078125 C-12.41440114 12.35869771 -12.18783493 9.98772434 -11.83984375 6.5078125 C-8.76952679 1.06047597 -6.04598017 -0.46429898 0 0 Z " fill="#F5F6F6" transform="translate(77.83984375,130.4921875)"/>
<path d="M0 0 C12 0 12 0 15.25 1.4375 C17.47712181 4.69864265 17.7180709 6.97313411 17.48046875 10.87109375 C17 13 17 13 14.9375 15.5625 C11.4026107 17.29233945 8.88817732 17.30495508 5 17 C5 19.31 5 21.62 5 24 C3.35 24 1.7 24 0 24 C0 16.08 0 8.16 0 0 Z " fill="#F7F7F7" transform="translate(41,187)"/>
<path d="M0 0 C3.0216321 0.73251687 4.80104733 2.27158096 6.93359375 4.46875 C8.50815114 7.61786479 8.28158493 9.98883816 7.93359375 13.46875 C5.51616988 17.42453452 3.91903536 19.10377163 -0.44140625 20.71875 C-4.80672986 20.4176932 -6.64477547 19.3535646 -9.734375 16.34765625 C-11.63923882 13.66073691 -11.93772651 11.68195258 -11.61328125 8.4375 C-9.9417066 2.41983125 -6.24603687 -0.47229012 0 0 Z " fill="#F9F9F9" transform="translate(149.06640625,130.53125)"/>
<path d="M0 0 C1.2065625 0.0309375 1.2065625 0.0309375 2.4375 0.0625 C3.81000361 3.30505652 5.15721548 6.55753652 6.5 9.8125 C7.08491211 11.19308594 7.08491211 11.19308594 7.68164062 12.6015625 C8.04580078 13.49101562 8.40996094 14.38046875 8.78515625 15.296875 C9.12554932 16.11381836 9.46594238 16.93076172 9.81665039 17.77246094 C10.50372309 20.30676764 10.30402168 21.61758332 9.4375 24.0625 C8.1175 24.0625 6.7975 24.0625 5.4375 24.0625 C5.1075 22.7425 4.7775 21.4225 4.4375 20.0625 C1.4675 20.0625 -1.5025 20.0625 -4.5625 20.0625 C-4.8925 21.3825 -5.2225 22.7025 -5.5625 24.0625 C-7.2125 24.0625 -8.8625 24.0625 -10.5625 24.0625 C-9.98356794 18.54817209 -8.57430744 13.84038415 -6.5625 8.6875 C-6.28921875 7.96433594 -6.0159375 7.24117187 -5.734375 6.49609375 C-3.27867194 0.07996761 -3.27867194 0.07996761 0 0 Z " fill="#F2F2F2" transform="translate(145.5625,186.9375)"/>
<path d="M0 0 C5.28 0 10.56 0 16 0 C16.33 1.32 16.66 2.64 17 4 C16 5 16 5 13.49609375 5.09765625 C11.98208984 5.08025391 11.98208984 5.08025391 10.4375 5.0625 C9.42558594 5.05347656 8.41367188 5.04445312 7.37109375 5.03515625 C6.19740234 5.01775391 6.19740234 5.01775391 5 5 C5 6.65 5 8.3 5 10 C7.31 10 9.62 10 12 10 C12 11.32 12 12.64 12 14 C9.69 14 7.38 14 5 14 C5 15.65 5 17.3 5 19 C8.63 19 12.26 19 16 19 C16.33 20.32 16.66 21.64 17 23 C16 24 16 24 12.40234375 24.09765625 C10.91402745 24.09191272 9.42573704 24.07889891 7.9375 24.0625 C5.318125 24.041875 2.69875 24.02125 0 24 C0 16.08 0 8.16 0 0 Z " fill="#F5F5F5" transform="translate(62,187)"/>
<path d="M0 0 C0.99 0.66 1.98 1.32 3 2 C2.67 3.32 2.34 4.64 2 6 C-0.97 6 -3.94 6 -7 6 C-7.33 6.66 -7.66 7.32 -8 8 C-7.31292969 8.17015625 -6.62585938 8.3403125 -5.91796875 8.515625 C-5.01691406 8.75796875 -4.11585938 9.0003125 -3.1875 9.25 C-1.84751953 9.59804687 -1.84751953 9.59804687 -0.48046875 9.953125 C2.42586892 11.1797368 3.46386707 12.27080383 5 15 C4.93162168 18.35053788 4.60590442 20.24261947 2.5 22.875 C-1.29496763 24.58273543 -4.90700497 24.58578644 -9 24 C-11.5625 22.5 -11.5625 22.5 -13 21 C-12.34 19.68 -11.68 18.36 -11 17 C-8.03 17.33 -5.06 17.66 -2 18 C-2 17.34 -2 16.68 -2 16 C-2.62648437 15.73445312 -3.25296875 15.46890625 -3.8984375 15.1953125 C-4.71570313 14.84210938 -5.53296875 14.48890625 -6.375 14.125 C-7.18710938 13.77695313 -7.99921875 13.42890625 -8.8359375 13.0703125 C-11 12 -11 12 -13 10 C-13.45409879 6.51857596 -13.39476404 4.65221885 -11.5625 1.625 C-7.85660314 -0.72508094 -4.28644991 -0.67888525 0 0 Z " fill="#EFF0EF" transform="translate(199,187)"/>
<path d="M0 0 C-0.783339 5.93688502 -4.01579527 8.7958604 -8 13 C-8.47308594 13.54785156 -8.94617188 14.09570312 -9.43359375 14.66015625 C-10.6875 16.0625 -10.6875 16.0625 -13 18 C-15.3125 17.8125 -15.3125 17.8125 -17 17 C-17 12.50148492 -16.6618698 12.15177364 -13.75 9.0625 C-11.63087138 6.7678476 -9.62270128 4.52072865 -7.6875 2.0625 C-5.04691893 -1.16487687 -3.81819568 -1.14545871 0 0 Z " fill="#F5F6F6" transform="translate(142,122)"/>
<path d="M0 0 C2.50907308 2.24951379 2.95656309 3.65250472 3.375 7 C2.96644557 10.26843543 2.20409407 11.61223142 0 14 C-2.3431213 13.74438677 -4.67843403 13.40729228 -7 13 C-8.59211531 9.81576939 -8.38981631 6.46582137 -8 3 C-6.009036 -0.35320253 -3.73765371 -0.6540894 0 0 Z " fill="#030303" transform="translate(29,192)"/>
<path d="M0 0 C4.78898976 0.43304695 6.64174987 2.2505288 9.75 5.8125 C10.52859375 6.68519531 11.3071875 7.55789062 12.109375 8.45703125 C13.83773725 10.78174989 14.82543534 12.12591748 15 15 C14.34 15.66 13.68 16.32 13 17 C7.94917777 16.55403418 5.22358882 12.51876081 2 9 C1.34 8.29875 0.68 7.5975 0 6.875 C-1 5 -1 5 -0.6875 2.25 C-0.460625 1.5075 -0.23375 0.765 0 0 Z " fill="#EDEDED" transform="translate(84,123)"/>
<path d="M0 0 C2.33294775 -0.04241723 4.66702567 -0.04092937 7 0 C8 1 8 1 8.125 3.5 C8 6 8 6 7 7 C4.66702567 7.04092937 2.33294775 7.04241723 0 7 C0 4.69 0 2.38 0 0 Z " fill="#0B0C0C" transform="translate(122,192)"/>
<path d="M0 0 C1.99954746 -0.04254356 4.00041636 -0.04080783 6 0 C7 1 7 1 7.125 3.5 C7 6 7 6 6 7 C4.00041636 7.04080783 1.99954746 7.04254356 0 7 C0 4.69 0 2.38 0 0 Z " fill="#050505" transform="translate(46,192)"/>
<path d="M0 0 C2.1385485 2.1385485 2.42655063 3.13275314 3 6 C1.35 6 -0.3 6 -2 6 C-1.34 4.02 -0.68 2.04 0 0 Z " fill="#121313" transform="translate(145,196)"/>
</svg>
