<?xml version="1.0" encoding="UTF-8"?>
<svg version="1.1" xmlns="http://www.w3.org/2000/svg" width="224" height="224">
<path d="M0 0 C73.92 0 147.84 0 224 0 C224 73.92 224 147.84 224 224 C150.08 224 76.16 224 0 224 C0 150.08 0 76.16 0 0 Z " fill="#FCFCFC" transform="translate(0,0)"/>
<path d="M0 0 C0.79075928 -0.00233643 1.58151855 -0.00467285 2.39624023 -0.00708008 C9.61689079 0.21467442 15.07242286 2.51619828 20.3125 7.625 C20.8075 9.11 20.8075 9.11 21.3125 10.625 C21.9725 10.625 22.6325 10.625 23.3125 10.625 C23.82039063 11.67558594 24.32828125 12.72617188 24.8515625 13.80859375 C32.29191261 29.37933153 32.29191261 29.37933153 43.93359375 41.90625 C49.73857795 46.56058031 54.93045201 52.47885603 57.3125 59.625 C58.01039152 68.68416882 57.24869323 75.383832 52.0625 82.875 C47.72317932 87.21432068 44.07983882 89.81734899 37.8125 90.0625 C30.05046844 89.64363826 24.84928085 85.79236752 18.7421875 81.34375 C10.75089184 75.69074342 4.00918592 74.91886943 -5.6875 75.625 C-11.7948052 77.00701915 -16.50092399 80.29319224 -21.5078125 83.95703125 C-22.12398437 84.40433594 -22.74015625 84.85164063 -23.375 85.3125 C-23.93574219 85.72886719 -24.49648437 86.14523438 -25.07421875 86.57421875 C-30.40545635 90.0466229 -37.65781365 89.53501781 -43.6875 88.625 C-49.53032455 85.35917713 -53.20240048 80.80396345 -55.6875 74.625 C-56.02472308 71.91316443 -56.19786334 69.5147417 -56.1875 66.8125 C-56.21585938 66.15185547 -56.24421875 65.49121094 -56.2734375 64.81054688 C-56.30014115 57.9143291 -53.4212588 52.60822052 -48.81201172 47.57836914 C-46.70168955 45.53162301 -44.54628063 43.54435437 -42.375 41.5625 C-35.48994633 35.01544386 -30.92550457 28.83859149 -27.23046875 20.11328125 C-25.00756866 15.08783877 -22.18309963 10.83535738 -18.3125 6.9375 C-17.49652344 6.09638672 -17.49652344 6.09638672 -16.6640625 5.23828125 C-11.3980687 0.94014797 -6.58001402 0.01456523 0 0 Z " fill="#F2F2F2" transform="translate(110.6875,73.375)"/>
<path d="M0 0 C0.79075928 -0.00233643 1.58151855 -0.00467285 2.39624023 -0.00708008 C9.61689079 0.21467442 15.07242286 2.51619828 20.3125 7.625 C20.8075 9.11 20.8075 9.11 21.3125 10.625 C21.9725 10.625 22.6325 10.625 23.3125 10.625 C23.82039063 11.67558594 24.32828125 12.72617188 24.8515625 13.80859375 C32.29191261 29.37933153 32.29191261 29.37933153 43.93359375 41.90625 C49.73857795 46.56058031 54.93045201 52.47885603 57.3125 59.625 C58.01039152 68.68416882 57.24869323 75.383832 52.0625 82.875 C47.72317932 87.21432068 44.07983882 89.81734899 37.8125 90.0625 C30.05046844 89.64363826 24.84928085 85.79236752 18.7421875 81.34375 C10.75089184 75.69074342 4.00918592 74.91886943 -5.6875 75.625 C-11.7948052 77.00701915 -16.50092399 80.29319224 -21.5078125 83.95703125 C-22.12398437 84.40433594 -22.74015625 84.85164063 -23.375 85.3125 C-23.93574219 85.72886719 -24.49648437 86.14523438 -25.07421875 86.57421875 C-30.40545635 90.0466229 -37.65781365 89.53501781 -43.6875 88.625 C-49.53032455 85.35917713 -53.20240048 80.80396345 -55.6875 74.625 C-56.02472308 71.91316443 -56.19786334 69.5147417 -56.1875 66.8125 C-56.21585938 66.15185547 -56.24421875 65.49121094 -56.2734375 64.81054688 C-56.30014115 57.9143291 -53.4212588 52.60822052 -48.81201172 47.57836914 C-46.70168955 45.53162301 -44.54628063 43.54435437 -42.375 41.5625 C-35.48994633 35.01544386 -30.92550457 28.83859149 -27.23046875 20.11328125 C-25.00756866 15.08783877 -22.18309963 10.83535738 -18.3125 6.9375 C-17.49652344 6.09638672 -17.49652344 6.09638672 -16.6640625 5.23828125 C-11.3980687 0.94014797 -6.58001402 0.01456523 0 0 Z M-16.6875 14.625 C-20.41307392 19.40769269 -22.65324848 24.65371701 -24.6953125 30.328125 C-25.73900553 32.74423327 -27.10702198 34.53555448 -28.6875 36.625 C-28.6875 37.285 -28.6875 37.945 -28.6875 38.625 C-29.244375 38.851875 -29.80125 39.07875 -30.375 39.3125 C-33.33088126 40.99016234 -35.40515982 43.15389485 -37.6875 45.625 C-38.41839844 46.40875 -39.14929688 47.1925 -39.90234375 48 C-46.48625176 55.17080419 -50.41042755 59.5897768 -50.17578125 69.60546875 C-49.4149395 74.31051411 -47.20730518 77.47655041 -43.6875 80.625 C-39.80942456 82.94416591 -36.11577672 83.52633066 -31.6875 82.625 C-28.45108044 80.9361877 -25.60966216 78.80249869 -22.6875 76.625 C-13.08941049 70.09321886 -5.5002664 67.56562414 6.3125 68.625 C14.11949547 70.16491195 20.63279112 74.26833923 26.625 79.375 C30.37889637 82.51779696 33.39364806 82.99252724 38.2578125 82.89453125 C42.51218307 82.33644842 45.10529058 80.0647326 47.79296875 76.859375 C50.53362474 72.95950598 52.15424775 69.56070091 51.69506836 64.73339844 C50.23224667 56.6715426 44.61636809 51.50845189 38.875 46.125 C31.18343277 38.87578041 26.37327565 32.18804715 22 22.5625 C19.22173323 16.73685103 16.012526 11.92110199 10.3125 8.625 C9.3225 8.625 8.3325 8.625 7.3125 8.625 C7.3125 7.965 7.3125 7.305 7.3125 6.625 C5.41698978 6.57058344 3.5210208 6.53201965 1.625 6.5 C0.56925781 6.47679688 -0.48648438 6.45359375 -1.57421875 6.4296875 C-8.10472519 6.8393805 -12.27620989 10.06159644 -16.6875 14.625 Z " fill="#0A0A09" transform="translate(110.6875,73.375)"/>
<path d="M0 0 C6.80621378 4.38622666 10.7310312 9.73825857 12.45703125 17.66015625 C14.06139303 27.37447866 11.89698317 37.56507558 6.5 45.875 C3.37114695 49.29490914 1.0172726 50.90123973 -3.1875 52.8125 C-4.5075 52.8125 -5.8275 52.8125 -7.1875 52.8125 C-7.20731934 52.00506348 -7.22713867 51.19762695 -7.24755859 50.36572266 C-7.34255899 46.72264125 -7.45233912 43.08015314 -7.5625 39.4375 C-7.5934375 38.16648438 -7.624375 36.89546875 -7.65625 35.5859375 C-7.69492188 34.37421875 -7.73359375 33.1625 -7.7734375 31.9140625 C-7.8048584 30.79338379 -7.8362793 29.67270508 -7.86865234 28.51806641 C-7.92161203 25.66539588 -7.92161203 25.66539588 -10.1875 23.8125 C-12.6875 23.47916667 -12.6875 23.47916667 -15.1875 23.8125 C-17.78838622 26.41338622 -17.48712225 27.63387113 -17.6015625 31.2578125 C-17.65957031 32.87236328 -17.65957031 32.87236328 -17.71875 34.51953125 C-17.7496875 35.64746094 -17.780625 36.77539062 -17.8125 37.9375 C-17.87050781 39.64099609 -17.87050781 39.64099609 -17.9296875 41.37890625 C-18.02417601 44.18993956 -18.10973541 47.00096233 -18.1875 49.8125 C-23.36398782 44.87902066 -26.24572902 40.08710349 -26.7890625 32.859375 C-26.82688075 31.09413778 -26.83383309 29.3280134 -26.8125 27.5625 C-26.80629639 26.64025635 -26.80009277 25.7180127 -26.79370117 24.76782227 C-26.55350603 17.06466256 -25.07344155 10.9914673 -20.1875 4.8125 C-13.78109589 -0.6966216 -8.28890517 -3.08802349 0 0 Z " fill="#050505" transform="translate(140.1875,16.1875)"/>
<path d="M0 0 C6.50276866 3.37180597 9.82366501 8.14816989 12.35546875 14.8671875 C16.17264172 27.53895024 13.86341435 37.6637963 8.04296875 49.3046875 C7.38296875 49.3046875 6.72296875 49.3046875 6.04296875 49.3046875 C6.02838623 48.65395264 6.01380371 48.00321777 5.9987793 47.33276367 C5.92432326 44.38530444 5.82765609 41.43898108 5.73046875 38.4921875 C5.70791016 37.46802734 5.68535156 36.44386719 5.66210938 35.38867188 C5.60893555 33.91430664 5.60893555 33.91430664 5.5546875 32.41015625 C5.52850342 31.50418701 5.50231934 30.59821777 5.4753418 29.66479492 C4.9660153 26.88463727 4.3453834 25.91769573 2.04296875 24.3046875 C-1.78969417 24.44558834 -1.78969417 24.44558834 -4.95703125 26.3046875 C-5.11528383 28.30250876 -5.20822296 30.30557584 -5.2734375 32.30859375 C-5.31533203 33.52353516 -5.35722656 34.73847656 -5.40039062 35.99023438 C-5.43970703 37.26962891 -5.47902344 38.54902344 -5.51953125 39.8671875 C-5.56271484 41.15044922 -5.60589844 42.43371094 -5.65039062 43.75585938 C-5.75687925 46.93868603 -5.85889087 50.12159424 -5.95703125 53.3046875 C-11.57581496 52.35396268 -15.20471382 50.15713735 -19.14453125 45.9921875 C-25.31792372 36.83853659 -26.15737491 26.35518221 -24.33203125 15.6796875 C-22.74516873 9.36576268 -18.92106595 5.05049613 -14.14453125 0.8046875 C-9.38755214 -1.4338909 -5.0060298 -1.77858943 0 0 Z " fill="#030303" transform="translate(94.95703125,15.6953125)"/>
<path d="M0 0 C7.4237101 3.42436197 12.20895436 10.33282268 15.0703125 17.7890625 C17.58915184 26.38942386 17.92232326 35.63582294 14.6875 44.125 C13.00290634 46.99504847 11.6719322 48.13791117 9 50 C8.98018066 49.31373535 8.96036133 48.6274707 8.93994141 47.92041016 C8.84489055 44.82154221 8.73513153 41.72336706 8.625 38.625 C8.5940625 37.54476562 8.563125 36.46453125 8.53125 35.3515625 C8.49257812 34.3203125 8.45390625 33.2890625 8.4140625 32.2265625 C8.36693115 30.79691162 8.36693115 30.79691162 8.31884766 29.33837891 C8.21444204 26.81104824 8.21444204 26.81104824 6 25 C3.5 24.66666667 3.5 24.66666667 1 25 C-1.67848546 27.67848546 -1.30504006 29.13970861 -1.4140625 32.8828125 C-1.45273437 34.04941406 -1.49140625 35.21601562 -1.53125 36.41796875 C-1.5621875 37.64128906 -1.593125 38.86460938 -1.625 40.125 C-1.66367187 41.35605469 -1.70234375 42.58710937 -1.7421875 43.85546875 C-1.8366999 46.90349376 -1.92225494 49.95150862 -2 53 C-10.4967279 50.35657354 -14.45655462 46.22262529 -18.7421875 38.59375 C-22.57725831 30.68540522 -22.94368989 21.65556426 -22 13 C-17.95303761 3.09527222 -10.87675934 -2.477043 0 0 Z " fill="#050505" transform="translate(59,54)"/>
<path d="M0 0 C5.99530695 6.73945512 7.29844841 11.66849806 7.21875 20.64453125 C6.92250398 25.18873365 5.829661 28.85960333 4 33 C3.7215625 33.68707031 3.443125 34.37414062 3.15625 35.08203125 C0.8782072 40.2174467 -2.30992001 44.80221819 -7 48 C-10.2265625 48.69140625 -10.2265625 48.69140625 -13 49 C-13.01981934 48.2886792 -13.03963867 47.5773584 -13.06005859 46.84448242 C-13.15524867 43.62511184 -13.26495229 40.4063955 -13.375 37.1875 C-13.4059375 36.06794922 -13.436875 34.94839844 -13.46875 33.79492188 C-13.50742188 32.72177734 -13.54609375 31.64863281 -13.5859375 30.54296875 C-13.63306885 29.0583313 -13.63306885 29.0583313 -13.68115234 27.54370117 C-13.83773433 24.75924906 -13.83773433 24.75924906 -16 22 C-19 21.5 -19 21.5 -22 22 C-24.15749784 25.23624676 -24.28360488 26.34394066 -24.4140625 30.10546875 C-24.45273438 31.08837891 -24.49140625 32.07128906 -24.53125 33.08398438 C-24.5621875 34.10814453 -24.593125 35.13230469 -24.625 36.1875 C-24.66367188 37.22326172 -24.70234375 38.25902344 -24.7421875 39.32617188 C-24.83648296 41.88393622 -24.92208202 44.44169287 -25 47 C-30.68111257 41.45982179 -32.28755759 35.57187805 -32.5625 27.6875 C-32.27359878 17.40055286 -28.52522576 8.86373361 -22 1 C-15.83224397 -4.60705093 -6.73218445 -4.68325875 0 0 Z " fill="#040404" transform="translate(179,57)"/>
<path d="M0 0 C4.25269321 2.42676622 7.12199483 5.4681002 9 10 C9.48578712 15.24650092 8.8850004 18.57633272 6 23 C3.21815501 26.12109438 1.67124003 27.69199903 -2.4375 28.44921875 C-6.58607862 28.62824967 -9.26942789 28.40414628 -12.9375 26.375 C-16.31492949 22.48583876 -18.15653667 19.11353309 -18.3125 13.9375 C-17.88415067 8.54029843 -17.10175951 6.23947945 -13.5 2.1875 C-9.38509372 -0.9716212 -4.95045715 -1.11834972 0 0 Z " fill="#060505" transform="translate(116,90)"/>
<path d="M0 0 C3.58796693 2.18397987 5.38678601 4.17738425 7 8 C7.76174217 11.96252419 7.75181661 15.48531065 5.9375 19.140625 C3.93582784 21.81677365 2.28511372 23.65680199 -1.00390625 24.53515625 C-5.41315442 24.72759023 -8.6766428 23.84859188 -12 21 C-14.61525329 16.94184834 -15.70124748 13.80855413 -15 9 C-13.1875 5.8125 -13.1875 5.8125 -11 3 C-10.5875 2.38125 -10.175 1.7625 -9.75 1.125 C-6.71295616 -0.82738532 -3.42885603 -0.60942558 0 0 Z " fill="#0F0E0E" transform="translate(30,186)"/>
<path d="M0 0 C2.475 0.495 2.475 0.495 5 1 C6.19287411 4.87684087 7 7.91621923 7 12 C7.66 11.67 8.32 11.34 9 11 C9.80835332 8.44169499 10.40779912 5.86090012 11.0234375 3.25 C11.34570312 2.5075 11.66796875 1.765 12 1 C14.1015625 0.1875 14.1015625 0.1875 16 0 C18.20536179 4.0271824 19.45660208 7.43545749 20 12 C20.66 12 21.32 12 22 12 C22.12375 10.948125 22.2475 9.89625 22.375 8.8125 C22.91140782 5.54041229 23.63880035 2.99463924 25 0 C26.32 0 27.64 0 29 0 C28.64624598 7.83565147 27.38807148 15.86891622 24 23 C21.98828125 23.99609375 21.98828125 23.99609375 20 24 C17.43488754 21.43488754 17.27631868 19.34211929 16.5625 15.875 C16.09524327 13.77917672 16.09524327 13.77917672 14 12 C13.79503906 12.69867188 13.59007812 13.39734375 13.37890625 14.1171875 C13.10949219 15.02726563 12.84007812 15.93734375 12.5625 16.875 C12.29566406 17.77992188 12.02882812 18.68484375 11.75390625 19.6171875 C11 22 11 22 10 24 C8.68 24 7.36 24 6 24 C4.99093539 20.75274421 3.99434878 17.50178926 3 14.25 C2.57074219 12.86941406 2.57074219 12.86941406 2.1328125 11.4609375 C1.86210937 10.57148438 1.59140625 9.68203125 1.3125 8.765625 C1.06113281 7.94868164 0.80976563 7.13173828 0.55078125 6.29003906 C0 4 0 4 0 0 Z " fill="#0C0C0C" transform="translate(153,186)"/>
<path d="M0 0 C4.28904235 1.5885342 6.32345526 4.43127368 9 8 C9 8.66 9 9.32 9 10 C9.99 10.33 10.98 10.66 12 11 C12 11.66 12 12.32 12 13 C12.78375 13.309375 13.5675 13.61875 14.375 13.9375 C17 15 17 15 19 16 C25.37355666 16.78271749 28.76389001 15.55686433 33.9453125 11.80078125 C36.94432671 9.17236765 38.90250417 6.38305779 41 3 C43.475 3.495 43.475 3.495 46 4 C45.1257697 10.43751399 41.18913286 15.23959491 36.34375 19.43359375 C30.49180971 23.50905217 23.9265076 23.91186736 17 23 C8.42677506 20.00192283 2.24257268 12.83076397 -2 5 C-1.80258003 2.71612187 -1.61706659 1.61706659 0 0 Z " fill="#0C0C0B" transform="translate(88,110)"/>
<path d="M0 0 C3.60938613 0.05632332 5.60657585 0.24781852 8.9375 1.75 C11.25192659 5.02212035 11.27172406 7.2647037 11.21875 11.19140625 C10.64349726 13.79442489 9.83835141 14.69205751 7.75 16.3125 C4.27674819 17.4702506 1.38932552 17.38116652 -2.25 17.3125 C-2.25 19.6225 -2.25 21.9325 -2.25 24.3125 C-3.57 24.3125 -4.89 24.3125 -6.25 24.3125 C-6.27887236 20.50001574 -6.29675492 16.6875593 -6.3125 12.875 C-6.32087891 11.78638672 -6.32925781 10.69777344 -6.33789062 9.57617188 C-6.34111328 8.54169922 -6.34433594 7.50722656 -6.34765625 6.44140625 C-6.35289307 5.48306885 -6.35812988 4.52473145 -6.36352539 3.53735352 C-6.14796221 -0.68722131 -3.69565707 0.09387364 0 0 Z " fill="#101010" transform="translate(123.25,185.6875)"/>
<path d="M0 0 C12 0 12 0 15.25 2 C17.59678292 6.02305644 17.38976109 8.40081908 17 13 C15.02 13.99 15.02 13.99 13 15 C13 15.66 13 16.32 13 17 C10.03 17 7.06 17 4 17 C4 19.31 4 21.62 4 24 C2.68 24 1.36 24 0 24 C0 16.08 0 8.16 0 0 Z " fill="#151414" transform="translate(41,186)"/>
<path d="M0 0 C1.828125 0.08984375 1.828125 0.08984375 4 1 C5.921875 3.50390625 5.921875 3.50390625 7.75 6.5625 C8.67039062 8.08037109 8.67039062 8.08037109 9.609375 9.62890625 C10.06828125 10.41136719 10.5271875 11.19382813 11 12 C11.33 8.37 11.66 4.74 12 1 C13.65 0.67 15.3 0.34 17 0 C17 7.92 17 15.84 17 24 C12 23 12 23 9.76171875 20.27734375 C9.07722656 19.17519531 8.39273438 18.07304687 7.6875 16.9375 C6.99011719 15.83277344 6.29273437 14.72804687 5.57421875 13.58984375 C5.05472656 12.73519531 4.53523438 11.88054687 4 11 C3.67 15.29 3.34 19.58 3 24 C1.68 24 0.36 24 -1 24 C-1.02887236 20.18751574 -1.04675492 16.3750593 -1.0625 12.5625 C-1.07087891 11.47388672 -1.07925781 10.38527344 -1.08789062 9.26367188 C-1.09111328 8.22919922 -1.09433594 7.19472656 -1.09765625 6.12890625 C-1.10289307 5.17056885 -1.10812988 4.21223145 -1.11352539 3.22485352 C-1 1 -1 1 0 0 Z " fill="#0D0D0C" transform="translate(84,186)"/>
<path d="M0 0 C3.61980608 0.05773215 4.65302956 0.31167237 7.8125 2.375 C9.97259236 5.71965914 10.42672257 7.54397764 10.18359375 11.44140625 C9.50194607 14.48118646 7.94767713 16.24196044 5.75 18.375 C2.89675563 19.80162219 0.91545451 19.68533868 -2.25 19.375 C-4.94990662 17.57506226 -6.7918865 16.291227 -8.25 13.375 C-8.62924138 8.35005174 -8.25366502 5.45998443 -5.25 1.375 C-3.69049449 -0.18450551 -2.16122869 0.09303302 0 0 Z " fill="#050505" transform="translate(146.25,130.625)"/>
<path d="M0 0 C2.62937639 1.76907351 3.34902923 3.12411543 5 6 C5.59077522 9.61849825 5.26276677 11.4219131 3.75 14.75 C1.11706623 18.13520056 -0.73942182 18.81225431 -4.9375 19.4375 C-8 19 -8 19 -10.875 17.125 C-13.84649145 12.75515964 -13.90105272 9.13773328 -13 4 C-10.25116901 -1.01960441 -5.19286385 -1.21967621 0 0 Z " fill="#060605" transform="translate(80,131)"/>
<path d="M0 0 C1.32 0 2.64 0 4 0 C5.15558273 2.87117516 6.29766867 5.74753929 7.4375 8.625 C7.92573242 9.83736328 7.92573242 9.83736328 8.42382812 11.07421875 C10.12222454 15.38149214 11.46729499 19.36321551 12 24 C10.68 24 9.36 24 8 24 C7.34 23.01 6.68 22.02 6 21 C3.80545319 20.42006301 3.80545319 20.42006301 1.375 20.3125 C0.55773437 20.24675781 -0.25953125 20.18101562 -1.1015625 20.11328125 C-1.72804687 20.07589844 -2.35453125 20.03851563 -3 20 C-3.33 21.32 -3.66 22.64 -4 24 C-5.32 24 -6.64 24 -8 24 C-8.25510323 19.36677368 -7.55575211 16.23250035 -5.6875 12 C-5.23375 10.96359375 -4.78 9.9271875 -4.3125 8.859375 C-2.93857401 5.86617909 -1.53711015 2.91241923 0 0 Z " fill="#0D0C0C" transform="translate(143,186)"/>
<path d="M0 0 C5.28 0 10.56 0 16 0 C16 1.65 16 3.3 16 5 C12.37 5 8.74 5 5 5 C5 6.65 5 8.3 5 10 C7.31 10 9.62 10 12 10 C12 11.32 12 12.64 12 14 C9.69 14.33 7.38 14.66 5 15 C4.67 16.65 4.34 18.3 4 20 C7.96 20 11.92 20 16 20 C16 21.32 16 22.64 16 24 C10.72 24 5.44 24 0 24 C0 16.08 0 8.16 0 0 Z " fill="#0F0F0F" transform="translate(62,186)"/>
<path d="M0 0 C0.99 0.66 1.98 1.32 3 2 C2.67 3.32 2.34 4.64 2 6 C-0.97 6 -3.94 6 -7 6 C-7 6.66 -7 7.32 -7 8 C-6.37351563 8.27714844 -5.74703125 8.55429688 -5.1015625 8.83984375 C-3.87566406 9.38318359 -3.87566406 9.38318359 -2.625 9.9375 C-1.81289062 10.29714844 -1.00078125 10.65679687 -0.1640625 11.02734375 C1.23683785 11.6569903 2.62625284 12.31312642 4 13 C4.47633136 19.19230769 4.47633136 19.19230769 2.5625 22.4375 C-1.15533742 24.70447403 -4.74236207 24.67432203 -9 24 C-9.99 23.34 -10.98 22.68 -12 22 C-12 20.68 -12 19.36 -12 18 C-8.7 18.33 -5.4 18.66 -2 19 C-1.34 18.01 -0.68 17.02 0 16 C-1.2375 15.731875 -2.475 15.46375 -3.75 15.1875 C-9.83893557 13.61128618 -9.83893557 13.61128618 -12 11 C-12.56495922 7.11590535 -12.57491801 4.93424177 -10.5 1.5625 C-6.77973621 -0.76266487 -4.35782859 -0.41503129 0 0 Z " fill="#101010" transform="translate(198,186)"/>
<path d="M0 0 C3.0625 0.3125 3.0625 0.3125 4.9375 1.3125 C6.74773932 4.53070324 6.60217465 7.71466898 6.0625 11.3125 C4.9375 13.3125 4.9375 13.3125 3.0625 14.3125 C0.0625 14.75 0.0625 14.75 -2.9375 14.3125 C-4.875 12.8125 -4.875 12.8125 -5.9375 10.3125 C-5.97140571 7.45311853 -5.53427162 5.15864157 -4.9375 2.3125 C-2.9375 0.3125 -2.9375 0.3125 0 0 Z " fill="#F1F1F1" transform="translate(25.9375,190.6875)"/>
<path d="M0 0 C1.32 0 2.64 0 4 0 C4.44921517 2.61630812 4.39564739 4.37591665 2.95556641 6.64746094 C1.47343693 8.46187179 -0.07971805 10.1710904 -1.6875 11.875 C-2.48317383 12.78378906 -2.48317383 12.78378906 -3.29492188 13.7109375 C-4.79653287 15.33230888 -6.17761962 16.74881347 -8 18 C-10.89453125 17.8828125 -10.89453125 17.8828125 -13 17 C-12.14664243 12.52288603 -9.56802253 10.01576282 -6.5 6.8125 C-5.98824219 6.26658203 -5.47648438 5.72066406 -4.94921875 5.15820312 C-3.31755577 3.42106325 -1.68537825 1.68537825 0 0 Z " fill="#0B0B0A" transform="translate(137,121)"/>
<path d="M0 0 C3.55180621 0.27175741 4.86305829 0.87014148 7.4921875 3.36328125 C8.27851562 4.33652344 9.06484375 5.30976563 9.875 6.3125 C10.67679688 7.27800781 11.47859375 8.24351562 12.3046875 9.23828125 C14 12 14 12 13.7578125 14.35546875 C13.50773437 14.89816406 13.25765625 15.44085938 13 16 C8.6913282 15.51796271 7.01157031 14.41662558 4.3125 11.0625 C3.73113281 10.35222656 3.14976563 9.64195312 2.55078125 8.91015625 C2.03902344 8.27980469 1.52726562 7.64945313 1 7 C0.34 6.34 -0.32 5.68 -1 5 C-0.625 2.375 -0.625 2.375 0 0 Z " fill="#10100F" transform="translate(84,123)"/>
<path d="M0 0 C2.875 -0.125 2.875 -0.125 6 0 C6.66 0.66 7.32 1.32 8 2 C7.625 4.625 7.625 4.625 7 7 C4.69 7 2.38 7 0 7 C0 4.69 0 2.38 0 0 Z " fill="#F2F1F1" transform="translate(122,191)"/>
<path d="M0 0 C1.99954746 -0.04254356 4.00041636 -0.04080783 6 0 C7 1 7 1 7.125 3.5 C7 6 7 6 6 7 C4.00041636 7.04080783 1.99954746 7.04254356 0 7 C0 4.69 0 2.38 0 0 Z " fill="#F3F3F3" transform="translate(46,191)"/>
<path d="M0 0 C0.66 0 1.32 0 2 0 C2.33 2.31 2.66 4.62 3 7 C1.35 7 -0.3 7 -2 7 C-1.34 4.69 -0.68 2.38 0 0 Z " fill="#C5C5C4" transform="translate(144,195)"/>
</svg>
